<?xml version="1.0" standalone="no"?>
<!DOCTYPE svg PUBLIC "-//W3C//DTD SVG 20010904//EN"
 "http://www.w3.org/TR/2001/REC-SVG-20010904/DTD/svg10.dtd">
<svg version="1.0" xmlns="http://www.w3.org/2000/svg"
 width="150.000000pt" height="48.000000pt" viewBox="0 0 150.000000 48.000000"
 preserveAspectRatio="xMidYMid meet">
<metadata>
Created by potrace 1.16, written by Peter Selinger 2001-2019
</metadata>
<g transform="translate(0.000000,48.000000) scale(0.100000,-0.100000)"
fill="#000000" stroke="none">
<path d="M0 240 l0 -240 750 0 750 0 0 240 0 240 -750 0 -750 0 0 -240z m625
45 c50 -49 17 -135 -51 -135 -46 0 -74 29 -74 78 0 42 6 54 35 70 32 18 64 14
90 -13z m146 15 c20 -11 27 -60 9 -60 -6 0 -3 -11 6 -25 16 -24 16 -27 -1 -45
-13 -14 -31 -20 -62 -20 l-43 0 0 80 0 80 36 0 c19 0 44 -5 55 -10z m336 -64
c12 -39 23 -74 23 -78 0 -14 -40 -8 -46 7 -4 8 -16 15 -29 15 -13 0 -25 -7
-29 -15 -6 -16 -46 -21 -46 -7 0 7 27 90 45 140 3 8 16 12 32 10 23 -3 29 -12
50 -72z"/>
</g>
</svg>
